<svg width="690" height="281" viewBox="0 0 590 281" fill="none" xmlns="http://www.w3.org/2000/svg">
<path fill-rule="evenodd" clip-rule="evenodd" d="M217 72.2548C87.6588 128.051 -5.11 199.849 0.218311 244.585C6.42612 296.706 143.437 292.358 306.24 234.873C469.044 177.388 595.99 88.5355 589.782 36.4148C584.493 -7.99302 484.249 -11.4079 354 24.1089V25.137C407.775 10.4702 456.413 2.4511 495.333 1.21588C522.971 0.338739 545.653 2.88461 561.787 8.86082C577.945 14.8461 587.343 24.193 588.839 36.7478C590.334 49.3026 583.831 64.2643 570.345 80.7166C556.88 97.1439 536.61 114.856 511.003 132.779C459.799 168.618 387.457 205.161 306.122 233.88C224.787 262.599 149.931 278.03 94.667 279.784C67.0291 280.661 44.3468 278.115 28.2132 272.139C12.0552 266.154 2.65659 256.807 1.16126 244.252C-0.334078 231.697 6.16928 216.736 19.6549 200.283C33.1201 183.856 53.3897 166.144 78.9973 148.221C115.651 122.566 163.137 96.5498 217 73.3014V72.2548Z" fill="#FF4800" fill-opacity="0.5"/>
</svg>
