<svg width="1440" height="1042" viewBox="0 0 1440 1042" fill="none" xmlns="http://www.w3.org/2000/svg">
<g clip-path="url(#clip0_348_84)">
<rect width="1440" height="1042" fill="#A73E15"/>
<rect y="1016" width="1440" height="26" fill="white"/>
<path d="M1444.74 1026C1454.27 1026 1462 1018.27 1462 1008.74V553.61C1462 539.371 1445.7 531.276 1434.31 539.823C1123.58 772.995 928.117 902.423 565.236 1026H1444.74Z" fill="white"/>
<path d="M8.36359 950.222C-3.10775 945.248 -16 953.595 -16 966.099V1008.74C-16 1018.27 -8.27256 1026 1.25972 1026H260.779C147.664 1004.2 89.295 985.316 8.36359 950.222Z" fill="white"/>
<path d="M1456.01 567.613C1460.33 564.411 1463 559.253 1463 553.88V469.414C1463 455.33 1446.57 447.562 1435.36 456.087C785.316 950.423 458.858 1086.06 0 952.17C456.444 1119.58 758.354 1085.65 1456.01 567.613Z" fill="#D4D4D4"/>
</g>
<defs>
<clipPath id="clip0_348_84">
<rect width="1440" height="1042" fill="white"/>
</clipPath>
</defs>
</svg>
