<svg width="50" height="45" viewBox="0 0 50 45" fill="none" xmlns="http://www.w3.org/2000/svg">
<mask id="path-1-outside-1_143_522" maskUnits="userSpaceOnUse" x="5" y="3.30908" width="21" height="39" fill="black">
<rect fill="white" x="5" y="3.30908" width="21" height="39"/>
<path d="M22.6436 33.0937C22.6436 35.2815 21.8779 37.1138 20.3464 38.5906C18.815 40.0673 16.9007 40.8057 14.6035 40.8057C12.4157 40.8057 10.5561 39.9579 9.02463 38.2624C7.49318 36.5668 6.72745 34.4338 6.72745 31.8631C6.72745 30.0035 7.13767 27.9524 7.95809 25.7099C8.8332 23.4675 9.95444 21.1976 11.3218 18.9004C12.7439 16.6033 14.33 14.3334 16.0803 12.0909C17.8852 9.79377 19.6901 7.66067 21.495 5.69166L23.7102 7.49659C21.2489 10.3954 19.1979 13.3216 17.557 16.2751C15.9162 19.2286 14.9317 22.1274 14.6035 24.9716C16.7913 25.1356 18.6783 25.9561 20.2644 27.4328C21.8506 28.9096 22.6436 30.7966 22.6436 33.0937Z"/>
</mask>
<path d="M20.3464 38.5906L19.5201 37.7336L20.3464 38.5906ZM7.95809 25.7099L6.84907 25.2771L6.84445 25.289L6.84008 25.3009L7.95809 25.7099ZM11.3218 18.9004L10.3096 18.2738L10.3041 18.2826L10.2988 18.2915L11.3218 18.9004ZM16.0803 12.0909L15.1442 11.3554L15.1418 11.3585L16.0803 12.0909ZM21.495 5.69166L22.247 4.76876L21.3764 4.05934L20.6175 4.88723L21.495 5.69166ZM23.7102 7.49659L24.6177 8.2671L25.4039 7.34105L24.4622 6.57369L23.7102 7.49659ZM14.6035 24.9716L13.4209 24.8351L13.2788 26.066L14.5145 26.1587L14.6035 24.9716ZM20.2644 27.4328L21.0756 26.5615L20.2644 27.4328ZM21.4532 33.0937C21.4532 34.9686 20.8115 36.4883 19.5201 37.7336L21.1728 39.4475C22.9443 37.7393 23.8341 35.5944 23.8341 33.0937H21.4532ZM19.5201 37.7336C18.2292 38.9784 16.6194 39.6152 14.6035 39.6152V41.9962C17.1819 41.9962 19.4008 41.1563 21.1728 39.4475L19.5201 37.7336ZM14.6035 39.6152C12.769 39.6152 11.2252 38.9226 9.90809 37.4644L8.14118 39.0603C9.88701 40.9932 12.0624 41.9962 14.6035 41.9962V39.6152ZM9.90809 37.4644C8.59931 36.0154 7.91793 34.1786 7.91793 31.8631H5.53698C5.53698 34.6889 6.38705 37.1183 8.14118 39.0603L9.90809 37.4644ZM7.91793 31.8631C7.91793 30.1763 8.29065 28.2658 9.07609 26.119L6.84008 25.3009C5.98468 27.639 5.53698 29.8306 5.53698 31.8631H7.91793ZM9.06711 26.1427C9.91599 23.9675 11.0073 21.7564 12.3448 19.5093L10.2988 18.2915C8.90162 20.6389 7.75042 22.9674 6.84907 25.2771L9.06711 26.1427ZM12.334 19.5271C13.7323 17.2683 15.2936 15.0337 17.0187 12.8234L15.1418 11.3585C13.3665 13.6331 11.7555 15.9382 10.3096 18.2738L12.334 19.5271ZM17.0163 12.8264C18.8044 10.5508 20.5898 8.44093 22.3726 6.49609L20.6175 4.88723C18.7904 6.88041 16.966 9.03673 15.1442 11.3554L17.0163 12.8264ZM20.743 6.61456L22.9582 8.41949L24.4622 6.57369L22.247 4.76876L20.743 6.61456ZM22.8027 6.72607C20.297 9.67719 18.1995 12.6672 16.5164 15.6969L18.5977 16.8532C20.1962 13.976 22.2008 11.1136 24.6177 8.2671L22.8027 6.72607ZM16.5164 15.6969C14.8131 18.7628 13.7699 21.8106 13.4209 24.8351L15.7861 25.108C16.0935 22.4443 17.0192 19.6944 18.5977 16.8532L16.5164 15.6969ZM14.5145 26.1587C16.4363 26.3028 18.0676 27.0141 19.4532 28.3041L21.0756 26.5615C19.289 24.8981 17.1463 23.9685 14.6925 23.7844L14.5145 26.1587ZM19.4532 28.3041C20.7816 29.541 21.4532 31.1048 21.4532 33.0937H23.8341C23.8341 30.4883 22.9195 28.2782 21.0756 26.5615L19.4532 28.3041Z" fill="white" mask="url(#path-1-outside-1_143_522)"/>
<mask id="path-3-outside-2_143_522" maskUnits="userSpaceOnUse" x="27.6191" y="3.30908" width="21" height="39" fill="black">
<rect fill="white" x="27.6191" y="3.30908" width="21" height="39"/>
<path d="M45.2628 33.0937C45.2628 35.2815 44.497 37.1138 42.9656 38.5906C41.4341 40.0673 39.5198 40.8057 37.2226 40.8057C35.0348 40.8057 33.1752 39.9579 31.6438 38.2624C30.1123 36.5668 29.3466 34.4338 29.3466 31.8631C29.3466 30.0035 29.7568 27.9524 30.5772 25.7099C31.4523 23.4675 32.5736 21.1976 33.941 18.9004C35.363 16.6033 36.9492 14.3334 38.6994 12.0909C40.5043 9.79377 42.3093 7.66067 44.1142 5.69166L46.3293 7.49659C43.8681 10.3954 41.817 13.3216 40.1762 16.2751C38.5353 19.2286 37.5508 22.1274 37.2226 24.9716C39.4104 25.1356 41.2974 25.9561 42.8835 27.4328C44.4697 28.9096 45.2628 30.7966 45.2628 33.0937Z"/>
</mask>
<path d="M42.9656 38.5906L42.1392 37.7336L42.9656 38.5906ZM30.5772 25.7099L29.4682 25.2771L29.4636 25.289L29.4592 25.3009L30.5772 25.7099ZM33.941 18.9004L32.9287 18.2738L32.9233 18.2826L32.918 18.2915L33.941 18.9004ZM38.6994 12.0909L37.7633 11.3554L37.7609 11.3585L38.6994 12.0909ZM44.1142 5.69166L44.8662 4.76876L43.9955 4.05934L43.2366 4.88723L44.1142 5.69166ZM46.3293 7.49659L47.2368 8.2671L48.0231 7.34105L47.0813 6.57369L46.3293 7.49659ZM37.2226 24.9716L36.04 24.8351L35.898 26.066L37.1336 26.1587L37.2226 24.9716ZM42.8835 27.4328L43.6948 26.5615L42.8835 27.4328ZM44.0723 33.0937C44.0723 34.9686 43.4307 36.4883 42.1392 37.7336L43.7919 39.4475C45.5634 37.7393 46.4532 35.5944 46.4532 33.0937H44.0723ZM42.1392 37.7336C40.8484 38.9784 39.2386 39.6152 37.2226 39.6152V41.9962C39.8011 41.9962 42.0199 41.1563 43.7919 39.4475L42.1392 37.7336ZM37.2226 39.6152C35.3881 39.6152 33.8443 38.9226 32.5272 37.4644L30.7603 39.0603C32.5062 40.9932 34.6816 41.9962 37.2226 41.9962V39.6152ZM32.5272 37.4644C31.2185 36.0154 30.5371 34.1786 30.5371 31.8631H28.1561C28.1561 34.6889 29.0062 37.1183 30.7603 39.0603L32.5272 37.4644ZM30.5371 31.8631C30.5371 30.1763 30.9098 28.2658 31.6952 26.119L29.4592 25.3009C28.6038 27.639 28.1561 29.8306 28.1561 31.8631H30.5371ZM31.6862 26.1427C32.5351 23.9675 33.6264 21.7564 34.9639 19.5093L32.918 18.2915C31.5208 20.6389 30.3696 22.9674 29.4682 25.2771L31.6862 26.1427ZM34.9532 19.5271C36.3514 17.2683 37.9127 15.0337 39.6379 12.8234L37.7609 11.3585C35.9856 13.6331 34.3746 15.9382 32.9287 18.2738L34.9532 19.5271ZM39.6355 12.8264C41.4235 10.5508 43.209 8.44093 44.9917 6.49609L43.2366 4.88723C41.4095 6.88041 39.5852 9.03673 37.7633 11.3554L39.6355 12.8264ZM43.3622 6.61456L45.5773 8.41949L47.0813 6.57369L44.8662 4.76876L43.3622 6.61456ZM45.4218 6.72607C42.9162 9.67719 40.8187 12.6672 39.1355 15.6969L41.2168 16.8532C42.8153 13.976 44.8199 11.1136 47.2368 8.2671L45.4218 6.72607ZM39.1355 15.6969C37.4323 18.7628 36.389 21.8106 36.04 24.8351L38.4053 25.108C38.7126 22.4443 39.6384 19.6944 41.2168 16.8532L39.1355 15.6969ZM37.1336 26.1587C39.0554 26.3028 40.6867 27.0141 42.0723 28.3041L43.6948 26.5615C41.9081 24.8981 39.7654 23.9685 37.3117 23.7844L37.1336 26.1587ZM42.0723 28.3041C43.4008 29.541 44.0723 31.1048 44.0723 33.0937H46.4532C46.4532 30.4883 45.5386 28.2782 43.6948 26.5615L42.0723 28.3041Z" fill="white" mask="url(#path-3-outside-2_143_522)"/>
</svg>
